<svg width="27" height="27" viewBox="0 0 27 27" fill="none" xmlns="http://www.w3.org/2000/svg">
<path d="M13.5 2.25C7.30013 2.25 2.25 7.30013 2.25 13.5C2.25 19.6999 7.30013 24.75 13.5 24.75C19.6999 24.75 24.75 19.6999 24.75 13.5C24.75 7.30013 19.6999 2.25 13.5 2.25ZM13.5 4.5C18.4839 4.5 22.5 8.51612 22.5 13.5C22.5 18.4839 18.4839 22.5 13.5 22.5C8.51612 22.5 4.5 18.4839 4.5 13.5C4.5 8.51612 8.51612 4.5 13.5 4.5ZM12.375 7.875V12.375H7.875V14.625H12.375V19.125H14.625V14.625H19.125V12.375H14.625V7.875H12.375Z" fill="white"/>
</svg>
