<svg width="25" height="25" viewBox="0 0 25 25" fill="none" xmlns="http://www.w3.org/2000/svg">
<path d="M2.1875 22.8125H3.7L19.925 6.62192L18.4125 5.10942L2.1875 21.3V22.8125ZM0.125 24.875V20.475L19.8906 0.743799C20.074 0.560465 20.2917 0.417236 20.5438 0.314111C20.7958 0.210986 21.0594 0.159424 21.3344 0.159424C21.5865 0.159424 21.8385 0.210986 22.0906 0.314111C22.3427 0.417236 22.5719 0.560465 22.7781 0.743799L24.2906 2.2563C24.4969 2.46255 24.6458 2.69172 24.7375 2.9438C24.8292 3.19588 24.875 3.44797 24.875 3.70005C24.875 3.95213 24.8234 4.20994 24.7203 4.47349C24.6172 4.73703 24.474 4.96047 24.2906 5.1438L4.525 24.875H0.125ZM19.1688 5.86567L18.4125 5.10942L19.925 6.62192L19.1688 5.86567Z" fill="#333333"/>
</svg>
