<svg width="152" height="153" viewBox="0 0 152 153" fill="none" xmlns="http://www.w3.org/2000/svg">
<path fill-rule="evenodd" clip-rule="evenodd" d="M7.91699 76.5C7.91699 38.7969 38.5436 7.96875 76.0003 7.96875C113.457 7.96875 144.084 38.7969 144.084 76.5C144.084 114.203 113.457 145.031 76.0003 145.031C38.5436 145.031 7.91699 114.203 7.91699 76.5ZM76.0003 17.5312C43.7903 17.5312 17.417 44.0781 17.417 76.5C17.417 108.922 43.7903 135.469 76.0003 135.469C108.21 135.469 134.584 108.922 134.584 76.5C134.584 44.0781 108.21 17.5312 76.0003 17.5312Z" fill="#333333"/>
<path fill-rule="evenodd" clip-rule="evenodd" d="M106.279 55.0809C108.132 56.9497 108.13 59.977 106.273 61.8426L70.3631 97.9251C68.5076 99.7895 65.5024 99.7881 63.6486 97.9221L45.7252 79.8808C43.8702 78.0136 43.8702 74.9863 45.7252 73.1191C47.5802 71.2519 50.5878 71.2519 52.4427 73.1191L67.0103 87.7825L99.5615 55.0749C101.418 53.2094 104.426 53.212 106.279 55.0809Z" fill="#333333"/>
</svg>
